<?xml version="1.0" encoding="utf-8"?>
<!-- Generator: Adobe Illustrator 26.0.0, SVG Export Plug-In . SVG Version: 6.00 Build 0)  -->
<svg version="1.1" id="Layer_1" xmlns="http://www.w3.org/2000/svg" xmlns:xlink="http://www.w3.org/1999/xlink" x="0px" y="0px"
	 viewBox="0 0 60 60" style="enable-background:new 0 0 60 60;" xml:space="preserve">
<style type="text/css">
	.st0{fill:#F96841;}
	.st1{fill:#444541;}
</style>
<g>
	<path class="st0" d="M39.6,11.4c-10.3-5.4-23-1.3-28.2,9s-1.3,23,9,28.2s23,1.3,28.2-9S49.9,16.7,39.6,11.4L39.6,11.4z"/>
	<g>
		<path class="st0" d="M29.6,44.7c-3.2,0-5.5-1.3-7-2.6c-1.9-1.6-3-3.7-3.1-4.6c-0.3-0.8-1.7-5.4,0.9-10.5l2-4.2
			c0.1-0.2,0.3-0.4,0.6-0.4c0.2,0,0.5,0.1,0.7,0.2c0,0,1.1,1.3,2.4,2.4c-0.1-0.9-0.2-1.9-0.2-3c0.1-3.8,1.7-6.3,4.7-7.4
			c0.3-0.1,0.6,0,0.8,0.2c0,0,4,4.6,7.7,11c1.1,1.8,1.7,3.8,2,5.8c0.3,3.1-0.4,6.1-2,8.4c-1.7,2.4-4.3,4-7.5,4.5
			C30.8,44.6,30.2,44.7,29.6,44.7z M21,37.3L21,37.3L21,37.3z"/>
	</g>
	<path class="st1" d="M38.1,14.4c2.1,1.1,3.9,2.5,5.5,4.3c1.5,1.7,2.5,3.8,3.3,5.9c0.7,2.2,1,4.4,0.8,6.7c-0.2,2.4-0.8,4.6-1.9,6.7
		c-1.1,2.1-2.5,3.9-4.3,5.5c-1.7,1.5-3.8,2.5-5.9,3.3c-2.2,0.7-4.4,1-6.7,0.8c-2.4-0.2-4.6-0.8-6.7-1.9c-2.1-1.1-3.9-2.5-5.5-4.3
		c-1.5-1.7-2.5-3.8-3.3-5.9c-0.7-2.2-1-4.4-0.8-6.7c0.2-2.4,0.8-4.6,1.9-6.7s2.5-3.9,4.3-5.5c1.7-1.5,3.8-2.5,5.9-3.3
		c2.2-0.7,4.4-1,6.7-0.8C33.7,12.6,36,13.2,38.1,14.4 M38.6,13.3c-9.2-4.7-20.6-1.1-25.4,8.1S12.1,42,21.3,46.8s20.6,1.1,25.4-8.1
		S47.8,18.1,38.6,13.3L38.6,13.3z"/>
	<g>
		<path class="st1" d="M29.6,44.7c-3.2,0-5.5-1.3-7-2.6c-1.9-1.6-3-3.7-3.1-4.6c-0.3-0.8-1.7-5.4,0.9-10.5l2-4.2
			c0.1-0.2,0.3-0.4,0.6-0.4c0.2,0,0.5,0.1,0.7,0.2c0,0,1.1,1.3,2.4,2.4c-0.1-0.9-0.2-1.9-0.2-3c0.1-3.8,1.7-6.3,4.7-7.4
			c0.3-0.1,0.6,0,0.8,0.2c0,0,4,4.6,7.7,11c1.1,1.8,1.7,3.8,2,5.8c0.3,3.1-0.4,6.1-2,8.4c-1.7,2.4-4.3,4-7.5,4.5
			C30.8,44.6,30.2,44.7,29.6,44.7z M21,37.3c0,0.4,0.9,2.4,3,4s4.5,2.2,7.3,1.7c5.6-0.9,8.9-5.4,8.3-11.2c-0.2-1.8-0.8-3.5-1.8-5.2
			c-3.1-5.2-6.2-9.1-7.2-10.4c-5,2.4-2.6,10.5-2.6,10.6c0.1,0.3,0,0.6-0.3,0.8c-0.3,0.2-0.6,0.2-0.9,0c-1.1-0.8-2.6-2.3-3.5-3.2
			l-1.6,3.2c-2.4,4.8-0.8,9.3-0.8,9.4C20.9,37.1,21,37.2,21,37.3z M21,37.3L21,37.3L21,37.3z"/>
	</g>
	<g>
		<path class="st1" d="M30,41.2c-0.4,0-0.7-0.3-0.8-0.7c0-0.4,0.3-0.8,0.7-0.8l0,0c0,0,3.1-0.1,4.9-2.1c0.9-1,1.4-2.4,1.3-4.1
			c0-0.4,0.3-0.8,0.7-0.8s0.8,0.3,0.8,0.7c0.1,2.1-0.5,3.9-1.7,5.2C33.7,41.1,30.2,41.2,30,41.2L30,41.2z"/>
	</g>
</g>
</svg>
