<?xml version="1.0" encoding="utf-8"?>
<!-- Generator: Adobe Illustrator 26.0.0, SVG Export Plug-In . SVG Version: 6.00 Build 0)  -->
<svg version="1.1" id="Layer_1" xmlns="http://www.w3.org/2000/svg" xmlns:xlink="http://www.w3.org/1999/xlink" x="0px" y="0px"
	 viewBox="0 0 60 60" style="enable-background:new 0 0 60 60;" xml:space="preserve">
<style type="text/css">
	.st0{fill:#FBDA42;}
</style>
<g>
	<path class="st0" d="M28.9,46.7h3c1.7,0,3.3-0.6,4.4-1.8c0,0,0,0,0,0c1.1,0,2.4-0.4,3.6-1.2c1.1-0.7,1.9-1.6,2.4-2.5
		c0.5-1,0.6-1.8,0.1-2.5c-0.5-0.7-1.4-1-2.7-0.9c0-0.3,0.1-0.6,0.1-0.9c0-0.4-0.1-0.8-0.4-1.1c-0.3-0.3-0.6-0.4-1-0.4H18.7
		c-0.4,0-0.7,0.1-1,0.4c-0.3,0.3-0.4,0.7-0.4,1.1c0.3,3.5,1.9,6.5,4.2,8.5c0.9,0.8,2.1,1.2,3.3,1.2H28.9z M37.5,43.4
		c0.9-1.2,1.6-2.7,2-4.2c0.8-0.2,1.5-0.1,1.7,0.3c0.4,0.6-0.3,2-2,3.1C38.7,43,38.1,43.3,37.5,43.4z M22.9,43.7
		c0,0.1-0.1,0.2-0.1,0.2c-0.1,0.1-0.3,0.1-0.4,0c-0.6-0.6-2.2-2.5-3.4-6.4c0-0.1,0-0.2,0-0.3c0.1-0.1,0.1-0.1,0.2-0.1h0.3
		c0.1,0,0.3,0.1,0.3,0.2c0.2,1.2,1,4.1,2.9,6.1C22.9,43.5,22.9,43.6,22.9,43.7z"/>
	<path class="st0" d="M33.4,27.5c0.8,1,0.7,2.4-0.2,3.3l-1.3,1.4l0.6,0.5l1.3-1.4c1.1-1.2,1.2-3,0.2-4.3l-1.7-2.2
		c-0.7-1-0.7-2.3,0.1-3.2l1.6-1.9c1-1.2,1-2.9,0.1-4.2l-1.6-2.1l-0.6,0.5l1.6,2.1c0.7,1,0.7,2.3-0.1,3.2L31.8,21
		c-1,1.2-1,2.9-0.1,4.2L33.4,27.5z"/>
	<path class="st0" d="M28.6,27.5c0.8,1,0.7,2.4-0.2,3.3l-1.3,1.4l0.6,0.5l1.3-1.4c1.1-1.2,1.2-3,0.2-4.3l-1.7-2.2
		c-0.7-1-0.7-2.3,0.1-3.2l1.6-1.9c1-1.2,1-2.9,0.1-4.2l-1.6-2.1l-0.6,0.5l1.6,2.1c0.7,1,0.7,2.3-0.1,3.2L27,21c-1,1.2-1,2.9-0.1,4.2
		L28.6,27.5z"/>
	<path class="st0" d="M23.8,27.5c0.8,1,0.7,2.4-0.2,3.3l-1.3,1.4l0.6,0.5l1.3-1.4c1.1-1.2,1.2-3,0.2-4.3l-1.7-2.2
		c-0.7-1-0.7-2.3,0.1-3.2l1.6-1.9c1-1.2,1-2.9,0.1-4.2l-1.6-2.1l-0.6,0.5l1.6,2.1c0.7,1,0.7,2.3-0.1,3.2L22.3,21
		c-1,1.2-1,2.9-0.1,4.2L23.8,27.5z"/>
</g>
</svg>
